<?xml version="1.0" encoding="utf-8"?>
<!-- Generator: Adobe Illustrator 21.0.0, SVG Export Plug-In . SVG Version: 6.00 Build 0)  -->
<svg version="1.1" id="Слой_1" xmlns="http://www.w3.org/2000/svg" xmlns:xlink="http://www.w3.org/1999/xlink" x="0px" y="0px"
	 viewBox="0 0 300 300" style="enable-background:new 0 0 300 300;" xml:space="preserve">
<path d="M121.8,137H15.2C6.8,137,0,130.2,0,121.8V15.2C0,6.8,6.8,0,15.2,0h106.6c8.4,0,15.2,6.8,15.2,15.2v106.6
	C137,130.2,130.2,137,121.8,137z"/>
<path d="M284.8,137H178.2c-8.4,0-15.2-6.8-15.2-15.2V15.2C163,6.8,169.8,0,178.2,0h106.6c8.4,0,15.2,6.8,15.2,15.2v106.6
	C300,130.2,293.2,137,284.8,137z"/>
<path d="M121.8,300H15.2C6.8,300,0,293.2,0,284.8V178.2c0-8.4,6.8-15.2,15.2-15.2h106.6c8.4,0,15.2,6.8,15.2,15.2v106.6
	C137,293.2,130.2,300,121.8,300z"/>
<path d="M284.8,300H178.2c-8.4,0-15.2-6.8-15.2-15.2V178.2c0-8.4,6.8-15.2,15.2-15.2h106.6c8.4,0,15.2,6.8,15.2,15.2v106.6
	C300,293.2,293.2,300,284.8,300z"/>
</svg>
