<?xml version="1.0" encoding="utf-8"?>
<!-- Generator: Adobe Illustrator 22.0.1, SVG Export Plug-In . SVG Version: 6.00 Build 0)  -->
<svg version="1.1" id="Слой_1" xmlns="http://www.w3.org/2000/svg" xmlns:xlink="http://www.w3.org/1999/xlink" x="0px" y="0px"
	 viewBox="0 0 1446.39 696.62" style="enable-background:new 0 0 1446.39 696.62;" xml:space="preserve">
<text transform="matrix(1 0 0 1 495.8403 262.5915)"><tspan x="0" y="0" style="fill:#2F2F2F; font-family:'Montserrat-Bold'; font-size:47.1622px; letter-spacing:3;"> </tspan><tspan x="16.88" y="0" style="fill:#937EBA; font-family:'Montserrat-Bold'; font-size:207.8752px; letter-spacing:15;">AROMA</tspan><tspan x="0" y="207.88" style="fill:#2F2F2F; font-family:'Montserrat-Bold'; font-size:207.8752px; letter-spacing:31;">G</tspan><tspan x="191.45" y="207.88" style="fill:#2F2F2F; font-family:'Montserrat-Bold'; font-size:207.8752px; letter-spacing:20;">ROUP</tspan></text>
<g>
	<rect x="123.06" y="323.86" style="fill:#2F2F2F;" width="233.1" height="34.65"/>
</g>
<g>
	<g>
		<polygon style="fill:#937EBA;" points="112.75,425.04 79.67,414.74 153.62,177.37 241.96,177.37 315.01,414.8 281.9,424.99 
			216.37,212.02 179.11,212.02 		"/>
	</g>
</g>
<g>
	<path style="fill:#2F2F2F;" d="M199.86,139.84c72.58,0,133.39,52.5,146.88,121.19h36.75c-14.05-88.76-90.92-157.57-183.64-157.57
		l0,0c-102.69,0-185.93,83.24-185.93,185.93c0,102.69,83.24,185.93,185.93,185.93c90.91,0,166.59-65.25,182.74-151.47l-37.01-0.05
		c-15.31,66.3-74.84,115.14-145.73,115.14c-82.46,0-149.55-67.09-149.55-149.55S117.39,139.84,199.86,139.84"/>
</g>
<g>
	<rect x="181.39" y="35.32" style="fill:#2F2F2F;" width="34.65" height="75.64"/>
</g>
<g>
	<rect x="144.42" y="18" style="fill:#2F2F2F;" width="110.29" height="34.65"/>
</g>
<rect x="131.85" y="322.88" style="fill:#937EBA;" width="143.78" height="34.65"/>
<rect x="19.25" y="534.22" style="fill:none;" width="1418.75" height="453.86"/>
<text transform="matrix(1 0 0 1 19.2529 577.925)"><tspan x="0" y="0" style="font-family:'Montserrat-Bold'; font-size:58.898px; letter-spacing:4;">ОПТОВИЙ ПОСТАЧАЛЬНИК НАЛИВНИХ </tspan><tspan x="0" y="86.62" style="font-family:'Montserrat-Bold'; font-size:58.898px; letter-spacing:4;">ПАРФУМІВ ТА АКСЕСУАРІВ</tspan></text>
</svg>
